#!OML:ASF F:\VICON\USERDATA\INSTALL\rory3\rory3.ASF
:FULLY-SPECIFIED
:DEGREES
212
root 0.6386357570352085 17.842278555305953 35.02459946080828 1.2991308266530268 -1.0029540339195133 -0.7231541090495417
lfemur -17.22930246212419 4.218905086358736 -21.83719069624816
ltibia 64.0749115875127
lfoot 2.80111362006266 -8.87429647610396
ltoes -8.896474452575337
rfemur -21.9358370038282 4.984804819056933 28.9023041501015
rtibia 56.94139148421924
rfoot 2.0996253839506465 -4.396546334009244
rtoes -2.390879746876921
lowerback 14.31925738672788 0.19258243876185832 0.8958407656404261
upperback -1.2970786442553324 0.6418304118718662 1.6062455036076737
thorax -9.303204701350701 0.3713392473701065 0.765066154656504
lowerneck -19.879736147551558 -3.725783802148687 -2.3855973780417297
upperneck 12.508099697780809 -5.818980273836545 5.244169242173143
head 7.365395569491122 -2.5425294921897885 1.3514793946051813
lclavicle 2.9801515526439752e-15 1.1900897868484632e-16
lhumerus -47.02154201124817 -12.347071314380443 95.72287886132686
lradius 111.07393432194216
lwrist 34.46880511270955
lhand -20.524101813057076 2.8252061379603206
lfingers 7.125019999999999
lthumb 5.4240509892120325 32.45386362013583
rclavicle 2.9801381671163078e-15 1.1900166246856291e-16
rhumerus -50.78797494361064 10.501409351450771 -97.55280966507583
rradius 110.36934599754909
rwrist -15.101846736305397
rhand -15.696013977105505 38.470575207759836
rfingers 7.125019999999999
rthumb 10.561860465205006 8.376906536868752
213
root 0.6370746384194697 17.839282744349465 35.38526855250864 1.2514259965047154 -0.8918849229409389 -0.7041650775863952
lfemur -17.427100528730037 4.347465322446723 -21.78692879956221
ltibia 66.01487072849167
lfoot 2.34423641960908 -9.043365571815848
ltoes -8.562546689374907
rfemur -21.34374241901689 5.301473748360102 29.11655237297349
rtibia 56.26017421245574
rfoot 1.7318466874528182 -4.414848558353944
rtoes -1.127563237273859
lowerback 14.371379159786542 0.22869861929822088 0.9632228683546737
upperback -1.2950210298978548 0.6163556076289288 1.6273435668904739
thorax -9.274868356434647 0.4496409008796397 0.7536998642455968
lowerneck -19.967600933293706 -3.8014738616765973 -2.4135532693793356
upperneck 12.492831667680282 -5.785642369874573 5.258268574383698
head 7.370577373759167 -2.5499097879998534 1.3565625145317208
lclavicle 2.9801515526439752e-15 1.1900897868484632e-16
lhumerus -47.57662162782561 -12.157030179995086 95.69359341229594
lradius 111.47732069031431
lwrist 34.32200091883956
lhand -20.503709496838134 2.8752554788282465
lfingers 7.125019999999999
lthumb 5.451499652573326 32.515106381219304
rclavicle 2.9801381671163078e-15 1.1900166246856291e-16
rhumerus -50.723117057574036 10.446953234197162 -97.47647615176004
rradius 109.96855252028408
rwrist -15.127638343108904
rhand -15.740392038117138 38.45968608613308
rfingers 7.125019999999999
rthumb 10.547649822335817 8.323753950017874
214
root 0.6275096868507894 17.791177282215465 34.107071184384814 1.139046996842774 -1.0884821244439067 -0.7932174909878529
lfemur -17.456158111687447 4.281259456705974 -21.661488883594604
ltibia 67.75622787589715
lfoot 2.7261287926257287 -9.327024726380689
ltoes -8.090713039427198
rfemur -21.449819947737364 5.154711661782152 28.96902152927322
rtibia 56.33308153462262
rfoot 1.1057892241105103 -4.8310158034643855
rtoes -0.37778771796799515
lowerback 14.445383404243154 0.29157248550243775 1.0743694137370532
upperback -1.2708426845989151 0.5697965851788991 1.6383187693979475
thorax -9.432504661595958 0.27211391378554983 0.21764485423980262
lowerneck -19.96849767989203 -3.8536132129158185 -2.4255729541757014
upperneck 12.514423780680234 -5.774815356413597 5.270547300352817
head 7.335929523078327 -2.589921551338445 1.329250157753683
lclavicle 2.9801515526439752e-15 1.1900897868484632e-16
lhumerus -47.439935387327424 -11.723276625242121 95.81114022418828
lradius 111.66025071694125
lwrist 34.02361819281257
lhand -20.541764946290364 2.8491275984329816
lfingers 7.125019999999999
lthumb 5.471237532494515 32.55043668548342
rclavicle 2.9801381671163078e-15 1.1900166246856291e-16
rhumerus -50.77894146278767 10.388629332081578 -97.4406141341274
rradius 109.78444609059179
rwrist -15.16457747105092
rhand -15.717349646121944 38.49317713513553
rfingers 7.125019999999999
rthumb 10.542769786203355 8.288018655022157
215
root 0.6194660005117498 17.743631087595396 33.34751284437447 1.037662434100399 -1.239553949025911 -0.8189741223001599
lfemur -16.02561696474366 4.971010671439672 -20.93221371885197
ltibia 69.00741607045074
lfoot 2.033742043153852 -9.427107209116203
ltoes -7.751025813231367
rfemur -22.20713587394775 4.845390310805661 28.792414353037536
rtibia 55.30184641573254
rfoot 0.698414268447086 -5.2957416428033115
rtoes 0.585334291234034
lowerback 14.461900719818644 0.33495708105498023 1.1850698610558568
upperback -1.2002201438546876 0.6910518689051177 1.68874377260311
thorax -9.329827823556064 0.41820485179458167 0.42256509419607485
lowerneck -20.027167807612226 -3.9747979139710417 -2.449398394895925
upperneck 12.547578252923328 -5.749701790813521 5.292627556471067
head 7.341686229081263 -2.5706662282211235 1.3420166389026469
lclavicle 2.9801515526439752e-15 1.1900897868484632e-16
lhumerus -48.40150791657549 -11.916904737634356 95.69548995782421
lradius 111.99185601178986
lwrist 34.04808224307978
lhand -20.509385255190836 2.8543075845831654
lfingers 7.125019999999999
lthumb 5.546294133877725 32.58610249528539
rclavicle 2.9801381671163078e-15 1.1900166246856291e-16
rhumerus -50.779398212642135 10.409328481613088 -97.40056701124028
rradius 109.72227035869051
rwrist -15.203593024177389
rhand -15.715704782894464 38.48423764988848
rfingers 7.125019999999999
rthumb 10.589357419645038 8.350396198605976
216
root 0.6093588587318071 17.685548256423722 31.92324604931076 0.8937248160993283 -1.4761433065446465 -1.0252439784951395
lfemur -18.595383751213063 4.551694832145767 -21.689670906838938
ltibia 69.82250985970225
lfoot 2.0810925237790103 -9.293211237066421
ltoes -7.469629778588811
rfemur -22.56016510509003 4.536652907191186 28.555524024344503
rtibia 54.88103489561306
rfoot 0.2951559388248173 -5.638946755793157
rtoes 1.1364213931548082
lowerback 14.517218456025384 0.3905106828432902 1.4042848713543732
upperback -1.173681710574807 0.6860177491950001 1.6763477532211513
thorax -9.435607460997577 0.34162773433395643 0.15630370224908274
lowerneck -20.00628956848875 -4.05226206230099 -2.4462277461185247
upperneck 12.593902593848096 -5.720249217709262 5.309806169324984
head 7.332750488394409 -2.560730815508968 1.3541137366851541
lclavicle 2.9801515526439752e-15 1.1900897868484632e-16
lhumerus -48.13359051053061 -11.69482310341629 95.81414095373654
lradius 112.01596662143811
lwrist 34.30069537958233
lhand -20.553685981682158 2.85742749241291
lfingers 7.125019999999999
lthumb 5.547798652854989 32.57142915966283
rclavicle 2.9801381671163078e-15 1.1900166246856291e-16
rhumerus -50.89544161062169 10.41098729581746 -97.40576380618428
rradius 109.63132518320056
rwrist -15.335733858327956
rhand -15.680996879568008 38.521303031212945
rfingers 7.125019999999999
rthumb 10.498642517146767 8.266134147778189
217
root 0.6167853343108843 17.7084937653559 34.01530957905335 0.9889507018760733 -1.1517682786547856 -0.6934032726513382
lfemur -15.750915322712514 5.409069902808696 -20.017590813721526
ltibia 70.24022516782924
lfoot 2.0945284357745693 -9.338559093789337
ltoes -7.375469552033222
rfemur -22.628258999574015 4.326528141609933 28.372621775146413
rtibia 55.09394450068862
rfoot -0.41315841373569295 -5.907427871105268
rtoes 1.1216533001921996
lowerback 14.484214902626706 0.3693064262237575 1.4484785355205774
upperback -1.1122814075856888 0.7423246548147912 1.6906870779708387
thorax -9.348508775147014 0.44851672511547214 0.2795364518200463
lowerneck -19.970929429242812 -4.112690042564089 -2.439484523329982
upperneck 12.566120447485732 -5.778926083967259 5.237309172814499
head 7.333070545301744 -2.5332746882901387 1.3789946409839442
lclavicle 2.9801515526439752e-15 1.1900897868484632e-16
lhumerus -48.333642455953964 -11.824363312933752 95.84454436911246
lradius 112.32074143476329
lwrist 34.28730837161654
lhand -20.605634698255994 2.839992322215507
lfingers 7.125019999999999
lthumb 5.547827563413922 32.48985807529588
rclavicle 2.9801381671163078e-15 1.1900166246856291e-16
rhumerus -50.59271527285881 10.59049787988273 -97.34232318737234
rradius 109.61922852121683
rwrist -15.31807004370295
rhand -15.721051217377063 38.475108313760934
rfingers 7.125019999999999
rthumb 10.596181384525238 8.34220469298164
218
root 0.6100290199759525 17.676255460608708 32.90923025129721 0.8914151955196101 -1.2309586588818233 -0.8149275179555207
lfemur -18.666550195499376 4.55522352297357 -21.32678308444179
ltibia 70.39419016678717
lfoot 0.8205391108909885 -9.450567613757125
ltoes -7.428517606236469
rfemur -20.12428149226947 4.819664405470874 29.231296132518885
rtibia 56.12918042579246
rfoot -0.2075774648436397 -5.891742122758162
rtoes 0.9723718448893928
lowerback 14.471620450336877 0.34819828062401004 1.3923047544843121
upperback -1.112824950375519 0.6072195422016144 1.639900935320519
thorax -9.43905845309662 0.37938338464084764 -0.10765865338405096
lowerneck -19.96519676108888 -4.201125878381253 -2.44090629823369
upperneck 12.632857553604568 -5.775693023092211 5.257632131000837
head 7.319359069140701 -2.5262749005962437 1.4029066475895453
lclavicle 2.9801515526439752e-15 1.1900897868484632e-16
lhumerus -48.71935741299656 -11.905716343291607 95.90221948490553
lradius 113.04699649535334
lwrist 34.327565479226976
lhand -20.66883083141559 2.8401441790673783
lfingers 7.125019999999999
lthumb 5.6233694908294725 32.593186436106535
rclavicle 2.9801381671163078e-15 1.1900166246856291e-16
rhumerus -50.53357412743496 10.63937336591527 -97.31338631629288
rradius 109.65392923390695
rwrist -15.357771872184404
rhand -15.689918293721867 38.512813142086046
rfingers 7.125019999999999
rthumb 10.528032939482845 8.263487629477497
219
root 0.6151813659314679 17.695980303165445 33.969877536074925 0.9856896366988264 -1.065654704976775 -0.6436666590230322
lfemur -19.34183004887028 4.517742066427107 -20.976048299896256
ltibia 70.39854703800168
lfoot 0.4098019092618532 -8.872780983272465
ltoes -7.6994324614044976
rfemur -19.34249471281189 4.86625831957925 29.17996298896014
rtibia 57.40079366979718
rfoot 0.1120151238823004 -5.658777958733648
rtoes -0.1667843153626304
lowerback 14.499756235208382 0.38233957741826535 1.4638346022979933
upperback -1.1046924164542415 0.6102771565116514 1.630762482086634
thorax -9.334761492440345 0.5381034978874732 0.024232988376080913
lowerneck -19.887211557188838 -4.194532335930003 -2.423697555414118
upperneck 12.622381546390331 -5.9004555706773365 5.191982029438135
head 7.322618713881145 -2.519484227780015 1.4209911362340164
lclavicle 2.9801515526439752e-15 1.1900897868484632e-16
lhumerus -47.48053760378839 -11.547718488142905 96.16872060312328
lradius 112.91485180558588
lwrist 34.22969847772818
lhand -20.670947600170454 2.9632370272698645
lfingers 7.125019999999999
lthumb 5.631110168367467 32.546789297477034
rclavicle 2.9801381671163078e-15 1.1900166246856291e-16
rhumerus -50.31948570512292 10.742915646454122 -97.20696555431667
rradius 109.7875054084898
rwrist -15.31178219051354
rhand -15.663069420031379 38.52684516050131
rfingers 7.125019999999999
rthumb 10.597704904265147 8.350351883787338
